<svg viewBox="0 0 1080 1080" xmlns="http://www.w3.org/2000/svg" xmlns:xlink="http://www.w3.org/1999/xlink"><clipPath id="a"><path d="m823 232.1c0 38.78-112.64 70.21-279.1 70.21s-276.71-31.43-276.71-70.21 110.19-70.2 276.66-70.2 279.15 31.43 279.15 70.2z"/></clipPath><clipPath id="b"><path d="m433 616.68c-11.56 26-14 77.52-15.71 80.94s-13.62 9.61-10.58 15.88c2.8 5.76 22.21 13.61 28 12 9-2.44 17.89-26.44 23.36-41.64 20 12 53.44 16.06 53.44 16.06s-3.39 24.94-6 30.4-11.74 12.13-9.86 18.79 19.9 10.42 27.9 11.45 20.95-42.88 23.94-58.25c53.21 5.63 117.44 1.54 117.44 1.54s7.69 26.81.17 38.77c-3.43 5.46-5.61 17-3.76 17.77 11.45 4.61 26.21 2 30.92-1.37 5.3-3.76 23.92-90.28 12.64-122.94s-33.56-51.38-72.77-61.28-98.39-10.36-98.39-10.36z"/></clipPath><path d="m438.68 221.85-222.83 614.07a37 37 0 0 0 20.51 46.78c51.68 21.69 162.56 59.41 308.71 59.41s257-37.72 308.72-59.41a37 37 0 0 0 20.5-46.78l-222.83-614.07z" fill="#ff97c9" opacity=".27"/><circle cx="309.98" cy="272.33" fill="#738de0" r="20.75"/><circle cx="780.16" cy="272.33" fill="#738de0" r="20.75"/><circle cx="545.07" cy="306.41" fill="#738de0" r="20.75"/><path d="m823 232.1c0 38.78-112.64 70.21-279.1 70.21s-276.71-31.43-276.71-70.21 110.19-70.2 276.66-70.2 279.15 31.43 279.15 70.2z" fill="#99adf9"/><g clip-path="url(#a)"><path d="m823 206.48c0 38.77-112.64 70.21-279.1 70.21s-276.66-31.44-276.66-70.21 110.19-70.21 276.66-70.21 279.1 31.44 279.1 70.21z" fill="#fff" opacity=".42"/></g><path d="m545.35 230.05c47.56 0 92.26-5.72 131.17-15.78-8.47-62.17-66.36-110.27-136.52-110.27-69.1 0-126.3 46.67-136.1 107.49 41.24 11.78 89.66 18.56 141.45 18.56z" fill="#99adf9"/><path d="m652.88 706.57c1.07-10.31-8.74-15.32-25.48-16.51s-26.87 2.38-27.94 12.69a15.36 15.36 0 0 0 2.48 10.14 3.56 3.56 0 0 1 0 3.82c-1.58 2.56-2.81 5.2-1.91 6.21 1.3 1.46 4.37.18 7.9-2.23a3.51 3.51 0 0 1 3.42-.29 34.21 34.21 0 0 0 7.32 2.21 3.59 3.59 0 0 1 2.87 2.76c.6 3 1.79 6 4.16 6.2 3 .28 4.55-2.14 5.14-5.69a3.56 3.56 0 0 1 2.94-3 33.42 33.42 0 0 0 3.82-.83 3.54 3.54 0 0 1 3.4.95c2.86 2.79 5.51 4.28 7.06 3 1-.85.39-3.5-.58-6a3.61 3.61 0 0 1 .74-3.84 15.8 15.8 0 0 0 4.66-9.59z" fill="#ff97c9"/><path d="m433 616.68c-11.56 26-14 77.52-15.71 80.94s-13.62 9.61-10.58 15.88c2.8 5.76 22.21 13.61 28 12 9-2.44 17.89-26.44 23.36-41.64 20 12 53.44 16.06 53.44 16.06s-3.39 24.94-6 30.4-11.74 12.13-9.86 18.79 19.9 10.42 27.9 11.45 20.95-42.88 23.94-58.25c53.21 5.63 117.44 1.54 117.44 1.54s7.69 26.81.17 38.77c-3.43 5.46-5.61 17-3.76 17.77 11.45 4.61 26.21 2 30.92-1.37 5.3-3.76 23.92-90.28 12.64-122.94s-33.56-51.38-72.77-61.28-98.39-10.36-98.39-10.36z" fill="#fff"/><g clip-path="url(#b)" fill="#1c3177"><path d="m623.35 564.49s-9 34.16 9.23 52.19 55.55 15.73 75.81-7.85c-19.39-35.35-85.04-44.34-85.04-44.34z"/><path d="m410.17 661.87s34.46 12.43 43.56 45.61c-20.5 32.42-52.22 22.52-52.22 22.52"/><path d="m664.52 628.59c10.59 0 18.28 3.56 22.89 10.35 3.51 5.17 13.83 17.72 25.36 10.81 15.09-9-8.11-40.32-8.11-40.32l-28.87-2.22z"/></g><path d="m430.1 624.52s17 39.21 59.67 39.18c37.38 0 61-42.82 49.65-72.48-36.67 14.92-109.32 33.3-109.32 33.3z" fill="#f0f4ff"/><path d="m421.19 507.88s-10.38-24.21-3.85-34.34 27.66 25.63 27.66 25.63z" fill="#fec272"/><path d="m533.42 507.88s10.37-24.21 3.84-34.34-27.67 25.63-27.67 25.63z" fill="#fec272"/><path d="m547.17 569.15c-3.31 38.55-16.23 71.75-78.23 66.42s-70.12-40.34-66.81-78.88 38.47-67 78.52-63.57 69.83 37.48 66.52 76.03z" fill="#fff"/><path d="m462.5 493.74s-80.9 7-89.74 35.15c-5.81 18.54 24.13 17.55 43.46-2.15 3.9-7.55 46.28-33 46.28-33z" fill="#fff"/><path d="m486.25 493.74s80.89 7 89.73 35.15c5.82 18.54-24.12 17.55-43.46-2.15-3.9-7.55-46.27-33-46.27-33z" fill="#1c3177"/><circle cx="427.67" cy="566.85" fill="#1c3177" r="9.64"/><circle cx="520.8" cy="574.85" fill="#1c3177" r="9.64"/><g fill="#ff97c9"><path d="m506.4 596.75c-1.07 12.48-14.68 21.49-35.49 19.71s-32-12.94-30.9-25.42 13.56-16.61 34.36-14.82 33.11 8.05 32.03 20.53z"/><ellipse cx="456.48" cy="588.36" rx="4.68" ry="4.89" transform="matrix(.08559082 -.99633037 .99633037 .08559082 -168.8 992.78)"/><ellipse cx="489.77" cy="591.22" rx="4.68" ry="4.89" transform="matrix(.08559082 -.99633037 .99633037 .08559082 -141.21 1028.57)"/></g><path d="m481.92 493.25s-14.01 25.75 17.76 44.75c23.77 14.2 44.35 4.15 44.35 4.15s-8.75-44.78-62.11-48.9z" fill="#1c3177"/><path d="m623 636.13c9.82 1 15.54 21.2 7.17 27.57s-22.37-4.56-23.23-13.78 3.6-15.1 16.06-13.79z" fill="#1c3177"/><path d="m515.74 649.4c3.44-10.33 27-8.19 37.58 1.38s15.88 29.54 10.59 33.3-16.23-8.28-26-11.79-25.51-12.89-22.17-22.89z" fill="#1c3177"/><ellipse cx="565.83" cy="149.85" fill="#fff" opacity=".42" rx="23.32" ry="53.46" transform="matrix(.24463053 -.96961637 .96961637 .24463053 282.08 661.82)"/><rect fill="#fec272" height="172.82" rx="12.79" transform="matrix(.92764083 -.37347355 .37347355 .92764083 -105.83 330.81)" width="25.58" x="788.12" y="352.15"/><rect fill="#fec272" height="100.6" rx="12.79" transform="matrix(.92447951 .38123173 -.38123173 .92447951 283.09 -25.4)" width="25.58" x="192.86" y="651.38"/></svg>